<svg width="65" height="65" viewBox="0 0 65 65" fill="none" xmlns="http://www.w3.org/2000/svg">
<path d="M60.6227 34.7323L55.5669 52.455C54.8214 55.057 52.4144 56.875 49.7108 56.875H22.3438C21.2205 56.875 20.3125 55.965 20.3125 54.8438V26.4062C20.3125 25.9695 20.4527 25.543 20.7147 25.1936L31.6672 10.4873C32.8819 8.96594 34.6328 8.125 36.5097 8.125C39.8998 8.125 42.6562 10.8814 42.6562 14.2716V24.375H52.8166C55.3861 24.375 57.7464 25.5511 59.2922 27.6027C60.8441 29.6583 61.3275 32.2563 60.6227 34.7323Z" fill="#00ADEE"/>
<path d="M14.2188 24.375H6.09375C4.97047 24.375 4.0625 25.285 4.0625 26.4062V54.8438C4.0625 55.965 4.97047 56.875 6.09375 56.875H14.2188C15.342 56.875 16.25 55.965 16.25 54.8438V26.4062C16.25 25.285 15.342 24.375 14.2188 24.375ZM10.1562 51.7969C8.47437 51.7969 7.10938 50.4319 7.10938 48.75C7.10938 47.0681 8.47437 45.7031 10.1562 45.7031C11.8381 45.7031 13.2031 47.0681 13.2031 48.75C13.2031 50.4319 11.8381 51.7969 10.1562 51.7969Z" fill="#00ADEE"/>
</svg>
