<svg width="56" height="64" viewBox="0 0 56 64" fill="none" xmlns="http://www.w3.org/2000/svg">
<path d="M49.7712 22.0982H6.35379C5.67519 22.0982 5.125 21.548 5.125 20.8694V17.183C5.125 14.4684 7.32557 12.2679 10.0402 12.2679H14.9554V6.94307C14.9554 6.26447 15.5056 5.71428 16.1842 5.71428H20.2801C20.9587 5.71428 21.5089 6.26447 21.5089 6.94307V12.2679H34.6161V6.94307C34.6161 6.26447 35.1663 5.71428 35.8449 5.71428H39.9409C40.6195 5.71428 41.1696 6.26447 41.1696 6.94307V12.2679H46.0848C48.7994 12.2679 51 14.4684 51 17.183V20.8694C51 21.548 50.4498 22.0982 49.7712 22.0982ZM6.35379 25.375H49.7712C50.4498 25.375 51 25.9252 51 26.6038V53.2277C51 55.9423 48.7994 58.1429 46.0848 58.1429H10.0402C7.32557 58.1429 5.125 55.9423 5.125 53.2277V26.6038C5.125 25.9252 5.67519 25.375 6.35379 25.375ZM40.4832 35.1999L37.5987 32.292C37.1208 31.8102 36.3427 31.807 35.8609 32.285L25.0028 43.0558L20.2945 38.3094C19.8166 37.8276 19.0384 37.8244 18.5566 38.3024L15.6488 41.187C15.167 41.6649 15.1638 42.443 15.6418 42.9247L24.1002 51.4515C24.578 51.9332 25.3561 51.9364 25.8379 51.4584L40.4762 36.9376C40.958 36.4597 40.9612 35.6817 40.4832 35.1999Z" fill="#00ADEE"/>
</svg>
