<svg width="39" height="39" viewBox="0 0 39 39" fill="none" xmlns="http://www.w3.org/2000/svg">
<rect width="39" height="39" rx="19.5" fill="#00ADEE"/>
<path d="M12.091 20.3705H24.2771L18.9532 25.6924C18.5277 26.1177 18.5277 26.8157 18.9532 27.241C19.3786 27.6663 20.0659 27.6663 20.4914 27.241L27.6809 20.0543C28.1064 19.629 28.1064 18.9419 27.6809 18.5166L20.5023 11.319C20.2985 11.1148 20.0218 11 19.7332 11C19.4446 11 19.1679 11.1148 18.9641 11.319C18.5386 11.7443 18.5386 12.4313 18.9641 12.8566L24.2771 18.1894H12.091C11.4909 18.1894 11 18.6802 11 19.28C11 19.8798 11.4909 20.3705 12.091 20.3705Z" fill="white"/>
</svg>
