<svg width="39" height="39" viewBox="0 0 39 39" fill="none" xmlns="http://www.w3.org/2000/svg">
<g opacity="0.3">
<rect width="39" height="39" rx="19.5" fill="#00ADEE"/>
<path d="M26.909 18.4144H14.7227L20.0467 13.0905C20.4722 12.665 20.4722 11.9667 20.0467 11.5413C19.8429 11.337 19.5662 11.2222 19.2776 11.2222C18.989 11.2222 18.7123 11.337 18.5084 11.5413L11.3189 18.7308C10.8934 19.1563 10.8934 19.8436 11.3189 20.2691L18.5084 27.4587C18.9339 27.8842 19.6212 27.8842 20.0467 27.4587C20.4722 27.0332 20.4722 26.3459 20.0467 25.9204L14.7227 20.5964H26.909C27.509 20.5964 28 20.1055 28 19.5054C28 18.9054 27.509 18.4144 26.909 18.4144Z" fill="white"/>
</g>
</svg>
