<svg width="72" height="24" viewBox="0 0 72 24" fill="none" xmlns="http://www.w3.org/2000/svg">
<g clip-path="url(#clip0_180_960)">
<path d="M69.7574 14.6672L71.7549 16.0199C71.1066 16.9899 69.5561 18.6542 66.8753 18.6542C63.5465 18.6542 61.0674 16.0378 61.0674 12.7094C61.0674 9.16751 63.5728 6.76465 66.5951 6.76465C69.6348 6.76465 71.124 9.22079 71.606 10.5468L71.8688 11.2232L64.0371 14.5159C64.6328 15.7085 65.5615 16.3137 66.8753 16.3137C68.1895 16.3137 69.1004 15.6551 69.7574 14.6672ZM63.6166 12.5226L68.8465 10.3155C68.5573 9.57693 67.699 9.05193 66.6738 9.05193C65.3687 9.05193 63.5553 10.2266 63.6166 12.5226Z" fill="#FF302F"/>
<path d="M57.2915 0.704244H59.8143V18.1114H57.2915V0.704102V0.704244Z" fill="#20B15A"/>
<path d="M53.3146 7.22743H55.7499V17.7999C55.7499 22.1871 53.2007 23.9937 50.1871 23.9937C47.3488 23.9937 45.6407 22.0537 45.0011 20.4786L47.2349 19.5351C47.6378 20.5051 48.6102 21.6533 50.1871 21.6533C52.1231 21.6533 53.3146 20.434 53.3146 18.1559V17.3016H53.227C52.6487 18.0134 51.545 18.6541 50.1433 18.6541C47.2174 18.6541 44.5366 16.0644 44.5366 12.7273C44.5366 9.37215 47.2174 6.75586 50.1433 6.75586C51.5362 6.75586 52.6487 7.38772 53.227 8.08186H53.3146V7.22757V7.22743ZM53.4897 12.7273C53.4897 10.627 52.1143 9.09629 50.3623 9.09629C48.5927 9.09629 47.1034 10.627 47.1034 12.7273C47.1034 14.8007 48.5927 16.3047 50.3623 16.3047C52.1145 16.3137 53.4898 14.8007 53.4898 12.7273H53.4897Z" fill="#3686F7"/>
<path d="M30.6866 12.6831C30.6866 16.1093 28.0586 18.6278 24.8347 18.6278C21.611 18.6278 18.9829 16.1005 18.9829 12.6831C18.9829 9.23906 21.611 6.72949 24.8347 6.72949C28.0586 6.72949 30.6866 9.23906 30.6866 12.6831ZM28.1286 12.6831C28.1286 10.5473 26.6042 9.07878 24.8347 9.07878C23.0653 9.07878 21.5409 10.5473 21.5409 12.6831C21.5409 14.8011 23.0653 16.2873 24.8347 16.2873C26.6044 16.2873 28.1286 14.8011 28.1286 12.6831Z" fill="#FF302F"/>
<path d="M43.4678 12.7094C43.4678 16.1356 40.8397 18.6541 37.616 18.6541C34.3922 18.6541 31.7642 16.1355 31.7642 12.7094C31.7642 9.26536 34.3922 6.76465 37.616 6.76465C40.8397 6.76465 43.4678 9.25651 43.4678 12.7094ZM40.901 12.7094C40.901 10.5736 39.3768 9.10508 37.6071 9.10508C35.8376 9.10508 34.3133 10.5736 34.3133 12.7094C34.3133 14.8274 35.8376 16.3136 37.6071 16.3136C39.3855 16.3136 40.901 14.8185 40.901 12.7094Z" fill="#FFBA40"/>
<path d="M9.36409 16.0466C5.69349 16.0466 2.82024 13.0386 2.82024 9.30976C2.82024 5.58105 5.69349 2.57305 9.36409 2.57305C11.3439 2.57305 12.7893 3.36505 13.858 4.37962L15.6189 2.59091C14.1297 1.14034 12.1411 0.0366211 9.36409 0.0366211C4.33576 0.036764 0.104492 4.20176 0.104492 9.30976C0.104492 14.418 4.33576 18.5829 9.36409 18.5829C12.0798 18.5829 14.1297 17.6752 15.7329 15.9843C17.3797 14.3112 17.8878 11.9618 17.8878 10.0573C17.8878 9.46105 17.8178 8.84705 17.7389 8.39319H9.36409V10.8672H15.3298C15.1546 12.4158 14.6728 13.4748 13.9632 14.1955C13.1047 15.0766 11.747 16.0466 9.36409 16.0466Z" fill="#3686F7"/>
</g>
<defs>
<clipPath id="clip0_180_960">
<rect width="72" height="24" fill="white"/>
</clipPath>
</defs>
</svg>
